# xmcd CD database file
#
# Track frame offsets:
#	150
#	19765
#	60470
#	86183
#	123269
#	162207
#	209233
#	260395
#	284072
#
# Disc length: 4120 seconds
#
# Revision: 0
# Processed by: cddbd v1.4PL0 Copyright (c) Steve Scherf et al.
# Submitted via: CDex 1.50beta10
#
DISCID=85101609
DTITLE=Allan Holdsworth - Bottom Line NYC Sept 12 1987 D1
DYEAR=1987
DGENRE=Jazz
TTITLE0=Sand
TTITLE1=Intros, Funnels
TTITLE2=Three Sheets to the Wind
TTITLE3=Pud Wud
TTITLE4=Looking Glass
TTITLE5=White Line
TTITLE6=Devil Takes the Hindmost
TTITLE7=Distance vs. Desire
TTITLE8=Non-Brewed Condiment
EXTD=YEAR: 1987
EXTT0=
EXTT1=
EXTT2=
EXTT3=
EXTT4=
EXTT5=
EXTT6=
EXTT7=
EXTT8=
PLAYORDER=
